<svg xmlns="http://www.w3.org/2000/svg" viewBox="0 0 23.13 23.15"><defs><style>.bitcoin-4{fill:url(#bitcoin-gradient)}</style></defs><title>bitcoin</title><g id="Слой_2" data-name="Слой 2"><g id="Слой_1-2" data-name="Слой 1"><path class="bitcoin-4" d="M11.59,0A11.57,11.57,0,1,0,23.13,11.58,11.6,11.6,0,0,0,11.59,0Zm5.85,12.56a2.8,2.8,0,0,1-1.06,1.77,7.42,7.42,0,0,1-1.34.91c-.13.07-.14.13-.08.25.27.54.52,1.09.78,1.63.06.12.06.19-.08.25-.3.13-.6.27-.89.42-.13.07-.17,0-.23-.09-.25-.55-.52-1.09-.77-1.63-.05-.11-.1-.14-.22-.08s-.43.21-.64.3-.14.1-.08.22c.26.52.5,1.06.76,1.58.08.16.08.24-.1.32s-.58.26-.86.41c-.11.06-.16,0-.21-.08-.26-.55-.53-1.1-.78-1.65-.07-.15-.13-.16-.27-.09l-2,1c-.12.06-.17.06-.21-.09-.11-.41-.23-.82-.35-1.23a.15.15,0,0,1,.1-.22c.23-.1.45-.21.68-.32a.47.47,0,0,0,.25-.72L7.39,10.33a.63.63,0,0,0-.9-.36c-.28.11-.54.24-.81.38-.11.05-.15,0-.2-.07-.15-.33-.31-.66-.47-1-.07-.13,0-.18.09-.23l2.09-1c.11-.05.12-.1.07-.2-.27-.55-.52-1.1-.79-1.65C6.41,6.1,6.41,6,6.54,6c.3-.13.6-.27.89-.42.13-.07.18,0,.24.09.25.54.51,1.07.76,1.6,0,.11.09.13.2.07s.43-.22.65-.32.12-.1.07-.21c-.26-.53-.51-1.07-.77-1.6-.06-.12,0-.18.08-.23.3-.13.6-.27.89-.42.12-.06.17,0,.23.08.25.54.52,1.08.76,1.62.07.15.14.16.27.11A5.5,5.5,0,0,1,12.46,6,2.3,2.3,0,0,1,14.8,8.68a2.49,2.49,0,0,1-.39.83,4.7,4.7,0,0,1,.72-.07A2,2,0,0,1,17,10.54,3.27,3.27,0,0,1,17.44,12.56Z"></path><path class="bitcoin-4" d="M13.61,11.35c-.15,0-.3,0-.45.06a9,9,0,0,0-2.2.88c-.09,0-.06.1,0,.16L12,14.78c0,.1.09.12.19.07.42-.2.84-.39,1.24-.63a3.79,3.79,0,0,0,1.12-.9,1.17,1.17,0,0,0,.3-1A1.21,1.21,0,0,0,13.61,11.35Z"></path><path class="bitcoin-4" d="M12.6,9.19A1.13,1.13,0,0,0,11.37,8h-.17a6.33,6.33,0,0,0-1.93.73c-.06,0-.07.07,0,.13l1,2.16c0,.07.06.09.14.05A7.12,7.12,0,0,0,12,10.15,1.42,1.42,0,0,0,12.6,9.19Z"></path></g></g><linearGradient id="bitcoin-gradient" x1="0" y1="0" x2="0" y2="50%"><stop offset="0%" stop-color="#ffaf63"></stop><stop offset="100%" stop-color="#ff4f6c"></stop></linearGradient></svg>