<svg xmlns="http://www.w3.org/2000/svg" viewBox="0 0 22.51 22.85"><defs><style>.config-1{fill:#fff;}</style></defs><title>config</title><g id="Слой_2" data-name="Слой 2"><g id="Слой_1-2" data-name="Слой 1"><g id="settings"><path class="config-1" d="M19.68,12.63c0-.34.11-.69.11-1.15a3.54,3.54,0,0,0-.11-1.15l2.41-2a.54.54,0,0,0,.11-.69l-2.3-4a.64.64,0,0,0-.69-.11L16.35,4.71a10.9,10.9,0,0,0-2-1.15l-.46-3A.46.46,0,0,0,13.48,0H8.88c-.23,0-.57.23-.57.46l-.46,3.1a8.66,8.66,0,0,0-2,1.15L3.14,3.56a.71.71,0,0,0-.8.23L0,7.81c-.11.11,0,.46.23.69l2.41,1.84c0,.34-.11.69-.11,1.15a3.54,3.54,0,0,0,.11,1.15l-2.41,2a.54.54,0,0,0-.11.69l2.3,4a.64.64,0,0,0,.69.11L6,18.25A10.9,10.9,0,0,0,8,19.4l.46,3a.53.53,0,0,0,.57.46h4.59c.23,0,.57-.23.57-.46l.46-3a10.9,10.9,0,0,0,2-1.15l2.87,1.15a.55.55,0,0,0,.69-.23l2.3-4c.11-.23.11-.57-.11-.69Zm-8.5,2.87a4,4,0,1,1,4-4A4.07,4.07,0,0,1,11.18,15.5Z"/></g></g></g></svg>