<svg xmlns="http://www.w3.org/2000/svg" viewBox="0 0 23.37 23.37"><linearGradient id="usd-gradient" x1="0" y1="0" x2="0" y2="50%" ><stop offset="0%" stop-color="#79dacc"/><stop offset="100%" stop-color="#2cb4d9"/></linearGradient><defs><style>.dollar-1{fill:url(#usd-gradient);}</style></defs><title>dollar</title><g id="Слой_2" data-name="Слой 2"><g id="Слой_1-2" data-name="Слой 1"><path class="dollar-1" d="M13.41,13.41a3,3,0,0,0-.58-.3l-.63-.23v3.44a3,3,0,0,0,.7-.22,2.31,2.31,0,0,0,.57-.37,1.71,1.71,0,0,0,.4-.53,1.58,1.58,0,0,0,.15-.7,1.21,1.21,0,0,0-.17-.65A1.47,1.47,0,0,0,13.41,13.41Z"/><path class="dollar-1" d="M9.66,8.86a1.38,1.38,0,0,0,.13.65,1.43,1.43,0,0,0,.34.42,1.8,1.8,0,0,0,.5.29l.61.26V7.26a2.24,2.24,0,0,0-1.1.52A1.36,1.36,0,0,0,9.66,8.86Z"/><path class="dollar-1" d="M11.68,0A11.68,11.68,0,1,0,23.37,11.68,11.68,11.68,0,0,0,11.68,0Zm4.23,15.9A3.55,3.55,0,0,1,15,17.06a4.16,4.16,0,0,1-1.28.77,6.13,6.13,0,0,1-1.58.37v1.27h-1V18.22A6.41,6.41,0,0,1,9,17.86a4.71,4.71,0,0,1-1.88-1.22L8.74,15a2.76,2.76,0,0,0,1.09.92,4.18,4.18,0,0,0,1.41.39V12.6l-.09,0q-.74-.21-1.41-.47a4.45,4.45,0,0,1-1.19-.67,3,3,0,0,1-.82-1A3.22,3.22,0,0,1,7.44,9a3.16,3.16,0,0,1,.32-1.43,3.59,3.59,0,0,1,.85-1.1,4.26,4.26,0,0,1,1.22-.75,5,5,0,0,1,1.43-.35V4.16h1V5.32h.16a5.87,5.87,0,0,1,1.84.31,4.46,4.46,0,0,1,1.61.91L14.34,8.17a3,3,0,0,0-1-.7,2.82,2.82,0,0,0-1.18-.26v3.52l.07,0q.74.19,1.45.44a5,5,0,0,1,1.27.64,3.12,3.12,0,0,1,.9,1,3,3,0,0,1,.34,1.5A3.64,3.64,0,0,1,15.91,15.9Z"/></g></g></svg>