<svg xmlns="http://www.w3.org/2000/svg" viewBox="0 0 23.25 23.25"><defs><style>.exchange-1{fill:#fff;}</style></defs><title>exchange</title><g id="Слой_2" data-name="Слой 2"><g id="Слой_1-2" data-name="Слой 1"><path class="exchange-1" d="M11.63,0A11.63,11.63,0,1,0,23.25,11.63,11.63,11.63,0,0,0,11.63,0ZM3.4,10.06A8.44,8.44,0,0,1,17.2,5.22l1.34-1,.69,6.2L13.44,7.89,14.67,7a5.46,5.46,0,0,0-3-.88,5.53,5.53,0,0,0-5.4,4.76Zm8.31,10a8.47,8.47,0,0,1-5.53-2L4.83,19l-.69-6.2,5.79,2.57-1.23.87a5.46,5.46,0,0,0,3,.88,5.53,5.53,0,0,0,5.4-4.76l2.87.84A8.4,8.4,0,0,1,11.71,20.08Z"/></g></g></svg>