<svg xmlns="http://www.w3.org/2000/svg" viewBox="0 0 23.25 23.25"><defs><style>.faq-1{fill:#fff;}</style></defs><title>faq</title><g id="Слой_2" data-name="Слой 2"><g id="Слой_1-2" data-name="Слой 1"><path class="faq-1" d="M11.47,0A11.63,11.63,0,1,0,23.25,11.47,11.63,11.63,0,0,0,11.47,0Zm0,18.7h-.06a1.69,1.69,0,0,1,0-3.38h.06a1.69,1.69,0,1,1,0,3.38Zm4.16-8.26a7.69,7.69,0,0,1-1.39,1.24l-.71.49a1.93,1.93,0,0,0-.71.87,1.8,1.8,0,0,0-.11.73v.11H10v-.23a3,3,0,0,1,.45-2,11.51,11.51,0,0,1,2-1.63,2.13,2.13,0,0,0,.48-.49,1.72,1.72,0,0,0,.41-1A2,2,0,0,0,13,7.43a1.55,1.55,0,0,0-1.34-.5,1.46,1.46,0,0,0-1.35.63,2.52,2.52,0,0,0-.41,1.35V9H7.06V8.9A4.25,4.25,0,0,1,8.88,5.24a4.78,4.78,0,0,1,2.63-.69,5.67,5.67,0,0,1,3.39,1,3.38,3.38,0,0,1,1.37,2.92A3.34,3.34,0,0,1,15.6,10.45Z"/></g></g></svg>