<svg xmlns="http://www.w3.org/2000/svg" viewBox="0 0 19.91 22.6"><defs><style>.cls-1{fill:#fff;}</style></defs><title>profile</title><g id="Слой_2" data-name="Слой 2"><g id="Слой_1-2" data-name="Слой 1"><path class="cls-1" d="M19.35,16.75a9,9,0,0,0-.6-2,3.13,3.13,0,0,0-1.52-1.62,7.28,7.28,0,0,0-.85-.34,13.1,13.1,0,0,1-2-.81.1.1,0,0,0-.15,0,5.32,5.32,0,0,1-.74.67,5.79,5.79,0,0,1-5,1A5.35,5.35,0,0,1,5.74,12a.11.11,0,0,0-.15,0,9.73,9.73,0,0,1-1.07.47c-.48.18-1,.33-1.45.5a3.2,3.2,0,0,0-1.88,1.75,7.85,7.85,0,0,0-.47,1.34A22.62,22.62,0,0,0,0,19.14a.14.14,0,0,0,.06.13,15.87,15.87,0,0,0,3.88,2.28,18.23,18.23,0,0,0,11.22.31,16,16,0,0,0,4.57-2.48.41.41,0,0,0,.18-.41A21.86,21.86,0,0,0,19.35,16.75Z"/><path class="cls-1" d="M5.84,9.91a4.89,4.89,0,0,0,1.65,1.68,4.86,4.86,0,0,0,3.3.58,4.36,4.36,0,0,0,2.7-1.48,6.44,6.44,0,0,0,1.16-2,10.87,10.87,0,0,0,.71-3.21,6,6,0,0,0-.28-2.37A4.29,4.29,0,0,0,12.43.41,7.31,7.31,0,0,0,9.73,0,6.93,6.93,0,0,0,8.16.2,4.51,4.51,0,0,0,5.3,2.15a5.17,5.17,0,0,0-.76,2.67,9.84,9.84,0,0,0,.34,2.72A8.23,8.23,0,0,0,5.84,9.91Z"/></g></g></svg>