<svg version="1.1" id="Слой_1" xmlns="http://www.w3.org/2000/svg" xmlns:xlink="http://www.w3.org/1999/xlink" x="0px" y="0px"
	 viewBox="0 0 23.9 23.9" xml:space="preserve">
<style>.ruble{fill:url(#ruble-gradient)}</style>
<linearGradient id="ruble-gradient" x1="0" y1="0" x2="0" y2="50%">
	<stop offset="0%" stop-color="#f9cb73"></stop>
	<stop offset="100%" stop-color="#ffa700"></stop>
</linearGradient>
<g>
	<path class="ruble" d="M12.1,7.5L8.4,8.8l1.7,4.6l3.6-1.4C16.9,10.9,15.1,6.3,12.1,7.5z"/>
	<path class="ruble" d="M7.8,0.8c-6.2,2.3-9.3,9.2-7,15.4c2.3,6.2,9.2,9.3,15.4,7c6.2-2.3,9.3-9.2,7-15.4C20.8,1.6,13.9-1.5,7.8,0.8z
		 M14.6,14.3l-3.6,1.4l0.4,1l4.6-1.7l0.6,1.5l-4.6,1.7l0.5,1.2l-2.4,0.9l-0.5-1.2l-1.8,0.7l-0.6-1.5l1.8-0.7L5.1,7.4
		c2-0.8,4-1.5,6.1-2.3C17.5,2.8,20.9,11.9,14.6,14.3z"/>
</g>
</svg>
