<?xml version="1.0" encoding="utf-8"?>
<!-- Generator: Adobe Illustrator 21.0.0, SVG Export Plug-In . SVG Version: 6.00 Build 0)  -->
<svg version="1.1" id="Слой_1" xmlns="http://www.w3.org/2000/svg" xmlns:xlink="http://www.w3.org/1999/xlink" x="0px" y="0px"
	 viewBox="0 0 22.7 22.7" style="enable-background:new 0 0 22.7 22.7;" xml:space="preserve">
<style type="text/css">
	.st0{clip-path:url(#SVGID_2_);}
	.st1{clip-path:url(#SVGID_4_);fill:#FFFFFF;}
	.st2{clip-path:url(#SVGID_6_);}
	.st3{clip-path:url(#SVGID_8_);fill:#FFFFFF;}
	.st4{clip-path:url(#SVGID_10_);}
	.st5{clip-path:url(#SVGID_12_);fill:#FFFFFF;}
	.st6{fill:#FFFFFF;}
</style>
<g>
	<defs>
		<path id="SVGID_1_" d="M-655.3-300c-0.3,0-0.5,0.2-0.5,0.5v2.6c0,0.3,0.2,0.5,0.5,0.5h2.3c0.3,0,0.5-0.2,0.5-0.5v-2.6
			c0-0.3-0.2-0.5-0.5-0.5H-655.3z M-657.5-303.1h8.7c0.6,0,1,0.5,1,1v7.7c0,0.6-0.5,1-1,1h-8.7c-0.6,0-1-0.5-1-1v-7.7
			C-658.5-302.6-658-303.1-657.5-303.1z M-648.3-305.2H-660c-0.6,0-1,0.5-1,1v11.9c0,0.6,0.5,1,1,1h11.8v2.5c0,0.6-0.5,1-1,1h-17.4
			c-0.6,0-1-0.5-1-1v-18.9c0-0.6,0.5-1,1-1h17.4c0.6,0,1,0.5,1,1V-305.2z"/>
	</defs>
	<clipPath id="SVGID_2_">
		<use xlink:href="#SVGID_1_"  style="overflow:visible;"/>
	</clipPath>
	<g class="st0">
		<defs>
			<rect id="SVGID_3_" x="-707.8" y="-528.7" width="1440" height="1081"/>
		</defs>
		<clipPath id="SVGID_4_">
			<use xlink:href="#SVGID_3_"  style="overflow:visible;"/>
		</clipPath>
		<rect x="-672.8" y="-313.7" class="st1" width="30" height="31"/>
	</g>
</g>
<g>
	<defs>
		<path id="SVGID_5_" d="M-656.3-300c-0.3,0-0.5,0.2-0.5,0.5v2.6c0,0.3,0.2,0.5,0.5,0.5h2.3c0.3,0,0.5-0.2,0.5-0.5v-2.6
			c0-0.3-0.2-0.5-0.5-0.5H-656.3z M-658.5-303.1h8.7c0.6,0,1,0.5,1,1v7.7c0,0.6-0.5,1-1,1h-8.7c-0.6,0-1-0.5-1-1v-7.7
			C-659.5-302.6-659-303.1-658.5-303.1z M-649.3-305.2H-661c-0.6,0-1,0.5-1,1v11.9c0,0.6,0.5,1,1,1h11.8v2.5c0,0.6-0.5,1-1,1h-17.4
			c-0.6,0-1-0.5-1-1v-18.9c0-0.6,0.5-1,1-1h17.4c0.6,0,1,0.5,1,1V-305.2z"/>
	</defs>
	<clipPath id="SVGID_6_">
		<use xlink:href="#SVGID_5_"  style="overflow:visible;"/>
	</clipPath>
	<g class="st2">
		<defs>
			<rect id="SVGID_7_" x="-708.8" y="-528.7" width="1440" height="1081"/>
		</defs>
		<clipPath id="SVGID_8_">
			<use xlink:href="#SVGID_7_"  style="overflow:visible;"/>
		</clipPath>
		<rect x="-673.8" y="-313.7" class="st3" width="30" height="31"/>
	</g>
</g>
<g>
	<defs>
		<path id="SVGID_9_" d="M-656.3-300c-0.3,0-0.5,0.2-0.5,0.5v2.6c0,0.3,0.2,0.5,0.5,0.5h2.3c0.3,0,0.5-0.2,0.5-0.5v-2.6
			c0-0.3-0.2-0.5-0.5-0.5H-656.3z M-658.5-303.1h8.7c0.6,0,1,0.5,1,1v7.7c0,0.6-0.5,1-1,1h-8.7c-0.6,0-1-0.5-1-1v-7.7
			C-659.5-302.6-659-303.1-658.5-303.1z M-649.3-305.2H-661c-0.6,0-1,0.5-1,1v11.9c0,0.6,0.5,1,1,1h11.8v2.5c0,0.6-0.5,1-1,1h-17.4
			c-0.6,0-1-0.5-1-1v-18.9c0-0.6,0.5-1,1-1h17.4c0.6,0,1,0.5,1,1V-305.2z"/>
	</defs>
	<use xlink:href="#SVGID_9_"  style="overflow:visible;fill-rule:evenodd;clip-rule:evenodd;fill:#FFFFFF;"/>
	<clipPath id="SVGID_10_">
		<use xlink:href="#SVGID_9_"  style="overflow:visible;"/>
	</clipPath>
	<g class="st4">
		<defs>
			<rect id="SVGID_11_" x="-708.8" y="-528.7" width="1440" height="1081"/>
		</defs>
		<use xlink:href="#SVGID_11_"  style="overflow:visible;fill:#FFFFFF;"/>
		<clipPath id="SVGID_12_">
			<use xlink:href="#SVGID_11_"  style="overflow:visible;"/>
		</clipPath>
		<rect x="-673.8" y="-313.7" class="st5" width="30" height="31"/>
	</g>
</g>
<g>
	<path class="st6" d="M1.3,11.3c0-3.1,0-6.2,0-9.3c0-0.5,0.2-0.9,0.7-1.1c0.2-0.1,17.7-0.1,17.8-0.1c0.5,0,1,0.4,1,1
		c0,0.8,0,1.6,0,2.4c0,0.1,0,0.2-0.2,0.2c-0.2,0-0.4,0-0.6,0c-3.6,0-7.3,0-10.9,0c-0.4,0-0.8,0.1-1,0.5C8.1,5,8,5.3,8,5.5
		c0,3.9,0,7.8,0,11.7c0,0.8,0.6,1.2,1.2,1.2c3.8,0,7.6,0,11.3,0c0.3,0,0.3,0.1,0.3,0.3c0,0.7,0,1.4,0,2.1c0,0.8-0.6,1.2-1.2,1.2
		c-5.7,0-11.4,0-17.1,0c-0.7,0-1.2-0.4-1.2-1.2C1.3,17.5,1.3,14.4,1.3,11.3z"/>
	<path class="st6" d="M16,6.4c1.4,0,2.8,0,4.3,0c0.7,0,1.1,0.4,1.1,1.1c0,2.6,0,5.1,0,7.7c0,0.7-0.5,1.1-1.2,1.1c-2,0-4,0-6,0
		c-0.8,0-1.6,0-2.4,0c-0.7,0-1.2-0.5-1.2-1.2c0-2.5,0-5,0-7.6c0-0.7,0.4-1.1,1.1-1.1C13.1,6.4,14.6,6.4,16,6.4z M13.3,11.3
		c0,0.4,0,0.9,0,1.3c0,0.3,0.1,0.5,0.4,0.5c0.8,0,1.6,0,2.3,0c0.3,0,0.4-0.2,0.4-0.5c0-0.8,0-1.7,0-2.5c0-0.3-0.2-0.5-0.5-0.5
		c-0.7,0-1.5,0-2.2,0c-0.3,0-0.5,0.2-0.5,0.5C13.3,10.5,13.3,10.9,13.3,11.3z"/>
</g>
</svg>
