<svg version="1.1" id="Слой_1" xmlns="http://www.w3.org/2000/svg" xmlns:xlink="http://www.w3.org/1999/xlink" x="0px" y="0px"
	 viewBox="0 0 184 51.3" style="enable-background:new 0 0 184 51.3;" xml:space="preserve" width="170">
<style type="text/css">
	.st0{clip-path:url(#SVGID_2_);}
	.st1{opacity:0.9;fill:url(#SVGID_3_);enable-background:new    ;}
	.st2{opacity:0.9;}
	.st3{opacity:0.9;fill:url(#SVGID_4_);enable-background:new    ;}
	.st4{opacity:0.9;fill:url(#SVGID_5_);enable-background:new    ;}
	.st5{opacity:0.9;fill:url(#SVGID_6_);enable-background:new    ;}
	.st6{clip-path:url(#SVGID_8_);}
	.st7{fill:#383838;}
</style>
<g>
	<g>
		<defs>
			<rect id="SVGID_1_" y="4.5" width="60.5" height="46.8"/>
		</defs>
		<clipPath id="SVGID_2_">
			<use xlink:href="#SVGID_1_"  style="overflow:visible;"/>
		</clipPath>
		<g class="st0">

				<linearGradient id="SVGID_3_" gradientUnits="userSpaceOnUse" x1="1837.9835" y1="1636.0217" x2="2405.4543" y2="1649.2562" gradientTransform="matrix(0.1069 0 0 0.1069 -196.4928 -154.0407)">
				<stop  offset="0" style="stop-color:#FF9134"/>
				<stop  offset="1" style="stop-color:#E72269"/>
			</linearGradient>
			<path class="st1" d="M20.1,25.6C-10,22.7,0.5,11.5,8.4,8.7c31.5-11.3,63.5,1.1,48.2,29c-1.3,2.4-3.3,1.2-5.1-0.6
				C46.4,32.2,37.2,27.3,20.1,25.6z"/>
			<g class="st2">

					<linearGradient id="SVGID_4_" gradientUnits="userSpaceOnUse" x1="2247.1521" y1="1707.7267" x2="2250.4712" y2="1705.1658" gradientTransform="matrix(0.1069 0 0 0.1069 -196.4928 -154.0407)">
					<stop  offset="0" style="stop-color:#74B65F"/>
					<stop  offset="1" style="stop-color:#3EB5F1"/>
				</linearGradient>
				<path class="st3" d="M43.4,28.2c0.2,0.1,0.5,0.1,0.7,0.2C43.9,28.3,43.7,28.3,43.4,28.2z"/>

					<linearGradient id="SVGID_5_" gradientUnits="userSpaceOnUse" x1="2040.8409" y1="1912.887" x2="2288.2219" y2="1721.9048" gradientTransform="matrix(0.1069 0 0 0.1069 -196.4928 -154.0407)">
					<stop  offset="0" style="stop-color:#85F362"/>
					<stop  offset="1" style="stop-color:#02AAFF"/>
				</linearGradient>
				<path class="st4" d="M44.9,28.7c0.2,0.1,0.5,0.2,0.7,0.3c2.8,1.2,4.5,3.2,5.3,5.8c0.7,2.3-0.7,6.9-3.7,9.4
					c-3.2,2.6-7.2,4.6-9.9,5.5c-8.8,3.1-17.2,2-18.9-4.2c-2-7.4,14.7-19.5,25-17.2C44,28.3,44.5,28.5,44.9,28.7z"/>
			</g>

				<linearGradient id="SVGID_6_" gradientUnits="userSpaceOnUse" x1="1940.6344" y1="1700.2893" x2="2048.2024" y2="1705.4263" gradientTransform="matrix(0.1069 0 0 0.1069 -196.4928 -154.0407)">
				<stop  offset="0" style="stop-color:#73BDFF"/>
				<stop  offset="1" style="stop-color:#5267CC"/>
			</linearGradient>
			<path class="st5" d="M19.7,20.9c6.7,1.5,0,15.5-5.2,14C6.8,32.7,12.3,19.3,19.7,20.9z"/>
		</g>
	</g>
</g>
<g>
	<g>
		<defs>
			<rect id="SVGID_7_" x="74" y="12.7" width="103.2" height="20.4"/>
		</defs>
		<clipPath id="SVGID_8_">
			<use xlink:href="#SVGID_7_"  style="overflow:visible;"/>
		</clipPath>
		<g class="st6">
			<path class="st7" d="M74,23c0-2.9,0-5.8,0-8.7c0-0.7,0.2-0.9,0.9-0.9c2.4,0,4.9-0.1,7.3,0c3.7,0.1,7,1.2,9.1,4.4
				c2.5,3.9,2,11.4-4.1,13.9c-1.4,0.5-2.8,0.9-4.4,0.9c-2.6,0-5.2,0-7.9,0c-0.7,0-1-0.2-1-0.9C74.1,28.9,74,26,74,23z M77.9,23
				c0,1.9,0,3.8,0,5.8c0,0.5,0.2,0.7,0.7,0.7c1.4,0,2.8,0,4.1,0c2.9-0.1,5.1-1.7,5.8-4.2c0.3-1.1,0.3-2.2,0.2-3.3
				c-0.3-2.7-2-4.5-4.8-5.1c-1.7-0.3-3.6-0.2-5.3-0.3c-0.6,0-0.8,0.2-0.7,0.8C77.9,19.3,77.9,21.1,77.9,23z"/>
			<path class="st7" d="M164.1,19.3c2.1-1.6,4.5-1.9,7-1.4c1.8,0.3,3.3,1.3,4.4,2.7c2.3,2.9,2.2,7.3-0.4,10
				c-2.3,2.5-7.4,3.8-11.4,0.8l-0.1,0.1c-0.3,1.2-0.3,1.2-1.6,1.2c-2,0-2,0-2-1.8c0-5.7,0-11.3,0-17c0-1,0-1,1.2-1.1
				c0.6,0,1.2,0,1.7,0c0.7-0.1,0.9,0.2,0.9,0.9c-0.1,1.6,0,3.3,0,4.9C164,18.8,164,19,164.1,19.3z M173.4,25.4c0-2.7-2-4.5-4.7-4.5
				c-2.8,0-4.9,2-4.9,4.6c0,2.5,2.1,4.6,4.8,4.6C171.4,30,173.4,28,173.4,25.4z"/>
			<path class="st7" d="M121.4,22.7c0-3,0-6,0-9c0-0.9,0.1-1,0.9-1c0.7,0,1.3,0,2,0c0.7-0.1,0.9,0.2,0.9,0.9c-0.1,1.6,0,3.3,0,4.9
				c0,0.2-0.1,0.4,0.1,0.5c0.1,0.1,0.3-0.1,0.4-0.2c2.3-1.4,4.8-1.6,7.3-0.7c2.6,0.9,3.6,2.9,3.8,5.4c0.2,2.7,0.1,5.6,0.1,8.3
				c0,0.6-0.2,0.9-0.9,0.8c-0.7-0.1-1.5-0.1-2.2,0c-0.7,0-0.9-0.2-0.8-0.8c0-2.3,0-4.7,0-6.9c0-0.7,0-1.3-0.2-2
				c-0.4-1.2-1.3-2-2.7-2.1c-3.1-0.3-4.9,1.3-5,4.3c0,2.3,0,4.5,0,6.7c0,0.6-0.2,0.8-0.9,0.8c-0.7-0.1-1.4-0.1-2.1,0
				c-0.7,0.1-0.9-0.2-0.9-0.8C121.4,28.8,121.4,25.8,121.4,22.7z"/>
			<path class="st7" d="M106.6,31.2c-1.5,1.1-3.2,1.6-4.9,1.8c-1.7,0.1-3.3,0-4.7-1c-1.6-1.2-2-2.8-1.7-4.7c0.3-1.6,1.6-2.3,3.1-2.8
				c2.2-0.7,4.6-0.6,7-0.5c0.9,0.1,0.9,0.1,0.9-0.8c0-1.3-0.5-2-1.9-2.4c-1.2-0.3-2.4-0.3-3.6,0.1c-0.5,0.2-1,0.5-1.2,0.9
				c-0.3,0.6-0.7,0.7-1.3,0.7c-0.7,0-1.4,0-2.1,0c-0.5,0-0.7-0.2-0.6-0.7c0.1-1.1,0.7-2,1.5-2.7c1.1-0.9,2.4-1.3,3.9-1.5
				c2.1-0.1,4.1-0.1,6.1,0.8c2,0.8,3.1,2.3,3.1,4.5c0,2.9,0,6,0,8.9c0,0.7-0.2,1-0.9,0.9c-0.1,0-0.3,0-0.4,0
				C107.1,32.6,107.1,32.6,106.6,31.2z M103.9,26.5c-1.1,0-2.2,0-3.3,0.3c-1,0.3-1.5,0.8-1.5,1.5c0,0.8,0.6,1.4,1.5,1.6
				c1.7,0.4,3.2,0,4.6-0.8c0.8-0.5,1.1-1.2,0.9-2.1c-0.1-0.4-0.1-0.5-0.6-0.5C105.1,26.6,104.5,26.5,103.9,26.5z"/>
			<path class="st7" d="M140.8,22.8c0-1.3,0-2.7,0-4c0-0.5,0.1-0.8,0.7-0.7c0.8,0,1.5,0,2.3,0c0.6,0,0.8,0.2,0.8,0.8
				c0,2.3,0,4.5,0,6.7c0,0.6,0,1.2,0.1,1.8c0.5,2,2,2.8,4.1,2.6c2.4-0.2,3.4-1.4,3.5-3.9c0-2.3,0-4.7,0-7c0-0.7,0.2-1,0.9-1
				c0.7,0.1,1.5,0,2.2,0c0.4,0,0.7,0.1,0.7,0.6c-0.1,2.9,0.2,5.8-0.1,8.7c-0.4,3.3-2.8,5.5-6.4,5.7c-1,0.1-2,0.1-3.1-0.1
				c-3.7-0.6-5.7-2.9-5.8-6.5C140.8,25.3,140.8,24.1,140.8,22.8z"/>
			<path class="st7" d="M116,27.4c1.2,0,2.2-0.9,2.2-2.1c0-1.1-1-2.1-2.2-2.1c-1.2,0-2.2,0.9-2.2,2.1
				C113.8,26.5,114.8,27.4,116,27.4z"/>
		</g>
	</g>
</g>
<path d="M74,43.9v-5.1h3.7v0.4h-3.4v2.1h3v0.4h-3v2.3H74z"/>
<path d="M78.9,43.9v-3.7h0.4v1.1c0.1-0.4,0.5-0.7,0.7-0.8c0.3-0.2,0.7-0.3,1-0.3v0.4h-0.1c-0.5,0-0.9,0.1-1.2,0.5
	c-0.3,0.3-0.5,0.8-0.5,1.4v1.5L78.9,43.9L78.9,43.9z"/>
<path d="M81.9,39.2v-0.5h0.5v0.5H81.9z M82,43.9v-3.7h0.4v3.7H82z"/>
<path d="M85.4,44c-0.5,0-1-0.2-1.3-0.6c-0.4-0.4-0.5-0.9-0.5-1.4s0.1-1,0.5-1.4c0.4-0.4,0.8-0.6,1.3-0.6c0.5,0,1,0.2,1.3,0.6
	c0.3,0.4,0.5,0.9,0.5,1.4c0,0.1,0,0.1,0,0.1h-3.2c0,0.4,0.2,0.8,0.5,1.1c0.3,0.3,0.6,0.4,1,0.4c0.5,0,1-0.2,1.3-0.6l0.2,0.2
	C86.5,43.8,86,44,85.4,44z M83.9,41.9h2.8c0-0.4-0.1-0.7-0.4-1s-0.6-0.4-1-0.4c-0.4,0-0.7,0.1-1,0.4C84.2,41.2,83.9,41.5,83.9,41.9z
	"/>
<path d="M88.2,43.9v-3.7h0.4v0.7c0.3-0.5,0.7-0.8,1.4-0.8c0.5,0,0.8,0.1,1.1,0.4c0.3,0.3,0.5,0.7,0.5,1.1v2.3h-0.4v-2.2
	c0-0.4-0.1-0.7-0.3-0.9c-0.2-0.2-0.5-0.4-0.9-0.4c-0.4,0-0.7,0.1-1,0.4c-0.2,0.2-0.4,0.6-0.4,0.9v2.2L88.2,43.9
	C88.2,43.8,88.2,43.9,88.2,43.9z"/>
<path d="M94.4,44c-0.5,0-0.9-0.1-1.3-0.5c-0.4-0.4-0.6-0.9-0.6-1.4s0.2-1.1,0.6-1.4c0.4-0.4,0.8-0.6,1.3-0.6c0.7,0,1.2,0.3,1.6,0.9
	v-2.3h0.4v5.3H96v-0.9C95.6,43.7,95.1,44,94.4,44z M93.5,43.2c0.3,0.3,0.6,0.4,1,0.4c0.5,0,0.8-0.1,1.1-0.4c0.3-0.3,0.5-0.7,0.5-1.2
	c0-0.4-0.1-0.9-0.5-1.2c-0.3-0.3-0.7-0.4-1.1-0.4s-0.8,0.1-1.1,0.4s-0.5,0.7-0.5,1.2C93,42.5,93.2,42.9,93.5,43.2z"/>
<path d="M97.9,43.9v-5.3h0.4v5.3H97.9z"/>
<path d="M100.2,45.1c-0.2,0-0.5-0.1-0.7-0.1l0.1-0.3c0.2,0.1,0.5,0.1,0.7,0.1c0.2,0,0.4-0.1,0.5-0.2c0.1-0.1,0.3-0.4,0.5-0.7
	l-1.9-3.7h0.5l1.6,3.3l1.4-3.3h0.4l-1.6,3.9c-0.1,0.4-0.4,0.7-0.5,0.8C100.7,45,100.5,45.1,100.2,45.1z"/>
<path d="M108.9,44c-0.7,0-1.3-0.3-1.9-0.8c-0.5-0.5-0.7-1.2-0.7-1.9s0.2-1.4,0.7-1.9c0.5-0.5,1.1-0.8,1.9-0.8c0.5,0,0.8,0.1,1.1,0.2
	s0.6,0.4,0.9,0.7l-0.2,0.3c-0.5-0.5-1.1-0.7-1.8-0.7c-0.7,0-1.2,0.2-1.6,0.7c-0.4,0.4-0.7,1-0.7,1.7c0,0.7,0.2,1.2,0.7,1.7
	c0.5,0.4,1,0.6,1.6,0.6c0.4,0,0.7-0.1,1-0.2c0.3-0.1,0.6-0.4,0.8-0.6l0.3,0.2c-0.3,0.3-0.6,0.5-1,0.7C109.7,43.8,109.4,44,108.9,44z
	"/>
<path d="M112,43.9v-3.7h0.4v1.1c0.1-0.4,0.4-0.7,0.7-0.8c0.3-0.2,0.7-0.3,1-0.3v0.4H114c-0.5,0-0.9,0.1-1.2,0.5
	c-0.3,0.4-0.5,0.8-0.5,1.4v1.5L112,43.9L112,43.9z"/>
<path d="M115.6,45.1c-0.2,0-0.5-0.1-0.7-0.1l0.1-0.3c0.2,0.1,0.5,0.1,0.7,0.1c0.2,0,0.4-0.1,0.5-0.2c0.1-0.1,0.3-0.4,0.5-0.7
	l-1.9-3.7h0.5l1.6,3.3l1.4-3.3h0.4l-1.6,3.9c-0.1,0.4-0.4,0.7-0.5,0.8C116.1,45,115.8,45.1,115.6,45.1z"/>
<path d="M119.5,45.1v-4.9h0.4V41c0.5-0.7,1-0.9,1.6-0.9c0.5,0,0.9,0.1,1.3,0.5c0.4,0.4,0.6,0.9,0.6,1.4c0,0.6-0.2,1.1-0.6,1.4
	s-0.8,0.6-1.3,0.6c-0.7,0-1.2-0.3-1.6-0.9v1.9H119.5z M121.4,43.6c0.5,0,0.8-0.1,1.1-0.4c0.3-0.3,0.5-0.7,0.5-1.2
	c0-0.5-0.1-0.9-0.5-1.2c-0.3-0.3-0.7-0.4-1-0.4c-0.5,0-0.8,0.1-1.1,0.4c-0.3,0.3-0.5,0.7-0.5,1.2c0,0.4,0.1,0.9,0.5,1.2
	C120.6,43.5,121,43.6,121.4,43.6z"/>
<path d="M125.8,44c-0.3,0-0.6-0.1-0.7-0.3c-0.2-0.1-0.3-0.4-0.3-0.7v-2.4h-0.6v-0.4h0.6V39h0.4v1.2h1.3v0.4h-1.3v2.3
	c0,0.5,0.2,0.7,0.7,0.7c0.1,0,0.4,0,0.5-0.1v0.4C126.2,43.9,126,44,125.8,44z"/>
<path d="M130.6,43.4c-0.4,0.4-0.8,0.6-1.4,0.6c-0.6,0-1-0.2-1.4-0.6s-0.6-0.9-0.6-1.4c0-0.5,0.2-1,0.6-1.4c0.4-0.4,0.8-0.6,1.4-0.6
	c0.6,0,1,0.2,1.4,0.6c0.4,0.4,0.6,0.9,0.6,1.4C131.2,42.6,131,43.1,130.6,43.4z M129.2,43.7c0.5,0,0.8-0.1,1.1-0.5
	c0.3-0.3,0.5-0.7,0.5-1.2c0-0.4-0.1-0.9-0.5-1.2c-0.3-0.3-0.7-0.5-1.1-0.5s-0.8,0.1-1.1,0.5c-0.3,0.4-0.5,0.7-0.5,1.2
	c0,0.4,0.1,0.9,0.5,1.2C128.4,43.5,128.8,43.7,129.2,43.7z"/>
<path d="M134.7,43.9v-5.1h1.9c0.6,0,1,0.1,1.4,0.4c0.4,0.3,0.5,0.7,0.5,1.2s-0.2,0.9-0.6,1.2c-0.4,0.3-0.9,0.4-1.5,0.4h-1.4v1.9
	L134.7,43.9L134.7,43.9z M135.1,41.7h1.4c0.5,0,0.9-0.1,1.2-0.4c0.3-0.2,0.5-0.5,0.5-0.9c0-0.4-0.1-0.7-0.5-0.9
	c-0.3-0.2-0.7-0.3-1.2-0.3H135L135.1,41.7L135.1,41.7L135.1,41.7z"/>
<path d="M141.3,44c-0.5,0-1-0.2-1.3-0.6c-0.4-0.4-0.5-0.9-0.5-1.4s0.1-1,0.5-1.4c0.4-0.4,0.8-0.6,1.3-0.6c0.5,0,1,0.2,1.3,0.6
	c0.3,0.4,0.5,0.9,0.5,1.4c0,0.1,0,0.1,0,0.1h-3.2c0,0.4,0.2,0.8,0.5,1.1c0.3,0.3,0.6,0.4,1,0.4c0.5,0,1-0.2,1.3-0.6l0.2,0.2
	C142.5,43.8,141.9,44,141.3,44z M139.8,41.9h2.8c0-0.4-0.1-0.7-0.4-1c-0.2-0.3-0.6-0.4-1-0.4c-0.4,0-0.7,0.1-1,0.4
	C140,41.2,139.9,41.5,139.8,41.9z"/>
<path d="M145.7,44c-0.5,0-1-0.2-1.3-0.6c-0.4-0.4-0.5-0.9-0.5-1.4s0.1-1,0.5-1.4c0.4-0.4,0.8-0.6,1.3-0.6c0.5,0,1,0.2,1.3,0.6
	c0.3,0.4,0.5,0.9,0.5,1.4c0,0.1,0,0.1,0,0.1h-3.2c0,0.4,0.2,0.8,0.5,1.1c0.3,0.3,0.6,0.4,1,0.4c0.5,0,1-0.2,1.3-0.6l0.2,0.2
	C146.9,43.8,146.4,44,145.7,44z M144.2,41.9h2.8c0-0.4-0.1-0.7-0.4-1c-0.3-0.3-0.6-0.4-1-0.4c-0.4,0-0.7,0.1-1,0.4
	C144.4,41.2,144.3,41.5,144.2,41.9z"/>
<path d="M148.5,43.9v-3.7h0.4v1.1c0.1-0.4,0.4-0.7,0.7-0.8c0.3-0.2,0.7-0.3,1-0.3v0.4h-0.1c-0.5,0-0.9,0.1-1.2,0.5
	c-0.3,0.4-0.5,0.8-0.5,1.4v1.5L148.5,43.9L148.5,43.9z"/>
<path d="M153.1,43.9v-4.8h-1.9v-0.4h4.1v0.4h-1.9v4.8H153.1z"/>
<path d="M159.6,43.4c-0.4,0.4-0.8,0.6-1.4,0.6c-0.6,0-1-0.2-1.4-0.6c-0.4-0.4-0.6-0.9-0.6-1.4c0-0.5,0.2-1,0.6-1.4
	c0.4-0.4,0.8-0.6,1.4-0.6c0.6,0,1,0.2,1.4,0.6c0.4,0.4,0.6,0.9,0.6,1.4C160.2,42.6,159.9,43.1,159.6,43.4z M158.1,43.7
	c0.5,0,0.8-0.1,1.1-0.5c0.3-0.3,0.5-0.7,0.5-1.2c0-0.4-0.1-0.9-0.5-1.2c-0.3-0.3-0.7-0.5-1.1-0.5s-0.8,0.1-1.1,0.5
	c-0.3,0.4-0.5,0.7-0.5,1.2c0,0.4,0.1,0.9,0.5,1.2C157.3,43.5,157.7,43.7,158.1,43.7z"/>
<path d="M161.4,43.9v-5.1h1.9c0.6,0,1,0.1,1.4,0.4c0.4,0.3,0.5,0.7,0.5,1.2s-0.2,0.9-0.6,1.2s-0.9,0.4-1.5,0.4h-1.4v1.9L161.4,43.9
	L161.4,43.9z M161.7,41.7h1.4c0.5,0,0.9-0.1,1.2-0.4c0.3-0.2,0.5-0.5,0.5-0.9c0-0.4-0.1-0.7-0.5-0.9c-0.3-0.2-0.7-0.3-1.2-0.3h-1.5
	L161.7,41.7L161.7,41.7L161.7,41.7z"/>
<path d="M168,44c-0.5,0-1-0.2-1.3-0.6c-0.4-0.4-0.5-0.9-0.5-1.4s0.1-1,0.5-1.4c0.4-0.4,0.8-0.6,1.3-0.6c0.5,0,1,0.2,1.3,0.6
	c0.3,0.4,0.5,0.9,0.5,1.4c0,0.1,0,0.1,0,0.1h-3.2c0,0.4,0.2,0.8,0.5,1.1s0.6,0.4,1,0.4c0.5,0,1-0.2,1.3-0.6l0.2,0.2
	C169.1,43.8,168.6,44,168,44z M166.4,41.9h2.8c0-0.4-0.1-0.7-0.4-1c-0.2-0.3-0.6-0.4-1-0.4s-0.7,0.1-1,0.4
	C166.7,41.2,166.5,41.5,166.4,41.9z"/>
<path d="M172.4,44c-0.5,0-1-0.2-1.3-0.6c-0.4-0.4-0.5-0.9-0.5-1.4s0.1-1,0.5-1.4c0.4-0.4,0.8-0.6,1.3-0.6c0.5,0,1,0.2,1.3,0.6
	c0.3,0.4,0.5,0.9,0.5,1.4c0,0.1,0,0.1,0,0.1h-3.2c0,0.4,0.2,0.8,0.5,1.1s0.6,0.4,1,0.4c0.5,0,1-0.2,1.3-0.6l0.2,0.2
	C173.5,43.8,173,44,172.4,44z M170.9,41.9h2.8c0-0.4-0.1-0.7-0.4-1c-0.2-0.3-0.6-0.4-1-0.4c-0.4,0-0.7,0.1-1,0.4
	C171.1,41.2,170.9,41.5,170.9,41.9z"/>
<path d="M175.2,43.9v-3.7h0.4v1.1c0.1-0.4,0.4-0.7,0.7-0.8c0.3-0.2,0.7-0.3,1-0.3v0.4h-0.1c-0.5,0-0.9,0.1-1.2,0.5
	c-0.3,0.4-0.5,0.8-0.5,1.4v1.5L175.2,43.9L175.2,43.9z"/>
</svg>
