<?xml version="1.0" standalone="no"?>
<!DOCTYPE svg PUBLIC "-//W3C//DTD SVG 20010904//EN"
 "http://www.w3.org/TR/2001/REC-SVG-20010904/DTD/svg10.dtd">
<svg version="1.0" xmlns="http://www.w3.org/2000/svg"
 width="566.000000pt" height="566.000000pt" viewBox="0 0 566.000000 566.000000"
 preserveAspectRatio="xMidYMid meet">
<metadata>
Created by potrace 1.11, written by Peter Selinger 2001-2013
</metadata>
<g transform="translate(0.000000,566.000000) scale(0.100000,-0.100000)"
fill="#000000" stroke="none">
<path d="M2629 5015 c-2 -1 -47 -6 -99 -9 -52 -4 -113 -9 -135 -11 -22 -2 -68
-7 -103 -10 -35 -4 -71 -8 -80 -9 -9 -2 -43 -7 -76 -11 -65 -8 -56 -6 -226
-35 -190 -32 -448 -89 -594 -132 -38 -11 -77 -21 -87 -23 -66 -13 -405 -125
-518 -172 -312 -128 -589 -367 -680 -588 -32 -76 -38 -200 -14 -272 28 -85
114 -192 208 -261 162 -119 488 -244 800 -308 11 -2 31 -6 45 -9 14 -3 36 -7
49 -10 13 -2 26 -6 28 -9 2 -2 -16 -46 -41 -98 -82 -168 -114 -356 -86 -509
30 -165 138 -291 300 -352 144 -53 280 -7 436 148 147 145 257 340 319 560 25
91 25 89 25 111 0 14 9 15 63 10 34 -4 87 -11 117 -16 30 -5 71 -11 90 -14
120 -17 254 -41 380 -67 80 -16 156 -32 170 -35 14 -3 103 -25 198 -50 167
-43 254 -72 222 -73 -27 -1 -240 -73 -236 -80 2 -3 -6 -7 -17 -7 -12 -1 -58
-19 -102 -40 -44 -20 -82 -38 -85 -39 -5 -1 -131 -64 -185 -93 -14 -7 -25 -18
-25 -23 0 -6 -4 -8 -8 -5 -5 3 -40 -15 -77 -39 -37 -25 -72 -45 -78 -45 -5 0
-6 -7 -3 -16 3 -9 2 -12 -4 -9 -12 7 -80 -32 -80 -46 0 -5 -5 -9 -10 -9 -19 0
-69 -43 -63 -53 3 -6 1 -7 -5 -3 -6 3 -25 -7 -41 -23 -17 -17 -31 -28 -31 -24
0 3 -7 0 -15 -7 -8 -7 -12 -17 -8 -24 3 -6 3 -8 -2 -4 -9 9 -40 -15 -110 -82
-111 -106 -166 -170 -159 -181 4 -7 3 -9 -3 -6 -29 18 -247 -332 -228 -363 3
-6 2 -10 -4 -10 -10 0 -29 -56 -38 -115 -3 -16 -7 -32 -9 -34 -2 -2 1 -10 7
-18 8 -9 8 -13 1 -13 -8 0 -10 -19 -7 -52 4 -46 7 -66 19 -113 10 -44 29 -84
37 -80 5 4 6 -1 3 -9 -8 -21 55 -122 118 -188 59 -61 166 -138 197 -141 11 0
17 -5 15 -9 -3 -4 0 -9 5 -9 16 -2 23 -4 63 -23 21 -9 49 -17 63 -18 14 -1 25
-5 25 -9 0 -4 15 -10 33 -13 17 -3 43 -8 57 -11 169 -36 476 -37 650 -1 8 1
38 6 65 11 28 4 55 10 60 13 6 4 19 7 30 8 40 2 125 26 120 34 -3 5 3 6 12 4
10 -3 65 11 123 31 58 19 112 37 120 39 8 2 38 14 65 26 70 31 99 43 105 45 8
2 70 30 125 56 118 55 382 211 460 271 6 5 37 29 70 54 33 25 62 49 63 55 2 5
8 9 14 9 17 0 128 124 123 138 -3 7 -1 11 4 8 13 -8 34 21 25 35 -4 7 -3 9 3
6 6 -4 18 4 26 16 20 30 97 175 97 182 0 3 6 20 13 38 24 57 49 158 43 173 -4
10 -2 12 6 8 7 -5 9 1 6 19 -7 38 15 40 48 5 78 -82 199 -155 272 -165 52 -7
117 22 156 70 83 104 291 582 331 762 2 11 14 61 25 110 11 50 23 106 26 125
2 19 8 64 13 100 17 128 10 361 -14 500 -9 53 -44 192 -54 215 -5 11 -19 47
-32 80 -111 291 -353 572 -671 779 -47 31 -91 56 -96 56 -6 0 -12 4 -14 9 -5
15 -267 138 -397 186 -276 102 -660 187 -946 210 -44 4 -91 9 -105 12 -27 5
-686 14 -691 8z m951 -2389 c0 -2 -8 -10 -17 -17 -16 -13 -17 -12 -4 4 13 16
21 21 21 13z m-689 -123 c13 -16 12 -17 -3 -4 -17 13 -22 21 -14 21 2 0 10 -8
17 -17z m313 -81 c3 -5 -1 -9 -9 -9 -8 0 -12 4 -9 9 3 4 7 8 9 8 2 0 6 -4 9
-8z m536 -36 c0 -2 -8 -10 -17 -17 -16 -13 -17 -12 -4 4 13 16 21 21 21 13z
m-1012 -71 c-3 -3 -9 2 -12 12 -6 14 -5 15 5 6 7 -7 10 -15 7 -18z m-158 -10
c14 -19 14 -19 -2 -6 -10 7 -18 18 -18 24 0 6 1 8 3 6 1 -2 9 -13 17 -24z
m1275 -185 c3 -5 1 -10 -4 -10 -6 0 -11 5 -11 10 0 6 2 10 4 10 3 0 8 -4 11
-10z m156 -27 c13 -16 12 -17 -3 -4 -17 13 -22 21 -14 21 2 0 10 -8 17 -17z
m-1710 -30 c13 -16 12 -17 -3 -4 -10 7 -18 15 -18 17 0 8 8 3 21 -13z m320
-80 c13 -16 12 -17 -3 -4 -17 13 -22 21 -14 21 2 0 10 -8 17 -17z m-311 3 c0
-2 -8 -10 -17 -17 -16 -13 -17 -12 -4 4 13 16 21 21 21 13z m2370 -6 c0 -5 -2
-10 -4 -10 -3 0 -8 5 -11 10 -3 6 -1 10 4 10 6 0 11 -4 11 -10z m-1466 -38 c3
-5 -1 -9 -9 -9 -8 0 -12 4 -9 9 3 4 7 8 9 8 2 0 6 -4 9 -8z m486 -6 c-7 -7
-13 -7 -20 0 -6 6 -3 10 10 10 13 0 16 -4 10 -10z m800 -60 c0 -2 -8 -10 -17
-17 -16 -13 -17 -12 -4 4 13 16 21 21 21 13z m231 -23 c13 -16 12 -17 -3 -4
-17 13 -22 21 -14 21 2 0 10 -8 17 -17z m-190 -30 c13 -16 12 -17 -3 -4 -17
13 -22 21 -14 21 2 0 10 -8 17 -17z m-1041 -67 c0 -2 -8 -10 -17 -17 -16 -13
-17 -12 -4 4 13 16 21 21 21 13z m554 -106 c-6 -6 -10 -3 -10 10 0 13 4 16 10
10 7 -7 7 -13 0 -20z m-329 10 c3 -6 -1 -7 -9 -4 -18 7 -21 14 -7 14 6 0 13
-4 16 -10z m-914 -47 c13 -16 12 -17 -3 -4 -17 13 -22 21 -14 21 2 0 10 -8 17
-17z m1299 13 c0 -2 -8 -10 -17 -17 -16 -13 -17 -12 -4 4 13 16 21 21 21 13z
m-1770 -70 c0 -2 -8 -10 -17 -17 -16 -13 -17 -12 -4 4 13 16 21 21 21 13z
m-169 -103 c13 -16 12 -17 -3 -4 -17 13 -22 21 -14 21 2 0 10 -8 17 -17z
m1640 -40 c13 -16 12 -17 -3 -4 -17 13 -22 21 -14 21 2 0 10 -8 17 -17z m-341
-107 c0 -2 -8 -10 -17 -17 -16 -13 -17 -12 -4 4 13 16 21 21 21 13z m-649 -83
c13 -16 12 -17 -3 -4 -10 7 -18 15 -18 17 0 8 8 3 21 -13z m139 -43 c0 -5 -2
-10 -4 -10 -3 0 -8 5 -11 10 -3 6 -1 10 4 10 6 0 11 -4 11 -10z m-835 -160 c3
-6 -1 -7 -9 -4 -18 7 -21 14 -7 14 6 0 13 -4 16 -10z m1035 6 c0 -2 -7 -7 -16
-10 -8 -3 -12 -2 -9 4 6 10 25 14 25 6z"/>
</g>
</svg>
